<svg xmlns="http://www.w3.org/2000/svg" viewBox="0 0 64 52" role="img" aria-label="Pasta aberta">
  <defs>
    <linearGradient id="tabOpen" x1="8" y1="8" x2="33" y2="30" gradientUnits="userSpaceOnUse">
      <stop offset="0" stop-color="#FFE8A3"/>
      <stop offset="1" stop-color="#F8BD49"/>
    </linearGradient>
    <linearGradient id="backOpen" x1="7" y1="15" x2="56" y2="45" gradientUnits="userSpaceOnUse">
      <stop offset="0" stop-color="#FFD86A"/>
      <stop offset="1" stop-color="#F5A40F"/>
    </linearGradient>
    <linearGradient id="frontOpen" x1="7" y1="28" x2="56" y2="52" gradientUnits="userSpaceOnUse">
      <stop offset="0" stop-color="#FFC247"/>
      <stop offset="1" stop-color="#E27E05"/>
    </linearGradient>
  </defs>
  <path fill="url(#tabOpen)" d="M6 13.6A5.6 5.6 0 0 1 11.6 8h13.7c1.7 0 3.3.8 4.4 2.2l3 3.8H52a6 6 0 0 1 6 6v5H6V13.6Z"/>
  <path fill="url(#backOpen)" d="M6 20a6 6 0 0 1 6-6h40a6 6 0 0 1 6 6v18.5H6V20Z"/>
  <path fill="#FFFFFF" fill-opacity=".42" d="M14 21h33a5 5 0 0 1 4.4 2.7L56 32H9l2.4-8.3A2.8 2.8 0 0 1 14 21Z"/>
  <path fill="url(#frontOpen)" d="M4.5 31.7A5.5 5.5 0 0 1 9.8 27h48.6a3 3 0 0 1 2.9 3.7l-3.4 13.8A6 6 0 0 1 52.1 49H11.5a6 6 0 0 1-5.8-7.3l-1.2-10Z"/>
  <path fill="#FFFFFF" fill-opacity=".26" d="M11 32c0-1.1.9-2 2-2h40c.6 0 1 .4 1 1s-.4 1-1 1H13a2 2 0 0 0-2 2c0 .6-.4 1-1 1s-1-.4-1-1v-2Z"/>
</svg>
